<svg xmlns="http://www.w3.org/2000/svg" viewBox="0 0 25.35 25.35"><defs><style>.cls-1{fill:#e0aa00;}</style></defs><title>icon-print</title><g id="Capa_2" data-name="Capa 2"><g id="Capa_1-2" data-name="Capa 1"><g id="_Grupo_" data-name="&lt;Grupo&gt;"><path id="_Trazado_compuesto_" data-name="&lt;Trazado compuesto&gt;" class="cls-1" d="M6.34,1.58H19V4.75H20.6V1.58A1.58,1.58,0,0,0,19,0H6.34A1.59,1.59,0,0,0,4.75,1.58V4.75H6.34Z"/><path id="_Trazado_compuesto_2" data-name="&lt;Trazado compuesto&gt;" class="cls-1" d="M23.77,6.34H1.58A1.58,1.58,0,0,0,0,7.92v7.93a1.58,1.58,0,0,0,1.58,1.58H4.75v6.34a1.58,1.58,0,0,0,1.59,1.58H19a1.58,1.58,0,0,0,1.58-1.58V17.43h3.17a1.58,1.58,0,0,0,1.58-1.58V7.92a1.58,1.58,0,0,0-1.58-1.58ZM19,23.77H6.34V12.68H19Zm3.16-12.68a1.59,1.59,0,1,1,1.59-1.58,1.58,1.58,0,0,1-1.59,1.58Z"/><rect id="_Trazado_" data-name="&lt;Trazado&gt;" class="cls-1" x="7.92" y="14.26" width="6.34" height="1.58"/><rect id="_Trazado_2" data-name="&lt;Trazado&gt;" class="cls-1" x="7.92" y="17.43" width="9.51" height="1.58"/><rect id="_Trazado_3" data-name="&lt;Trazado&gt;" class="cls-1" x="7.92" y="20.6" width="9.51" height="1.58"/></g></g></g></svg>