<svg xmlns="http://www.w3.org/2000/svg" viewBox="0 0 23.83 23.83"><defs><style>.cls-1,.cls-2{fill:#fff;}.cls-2{fill-rule:evenodd;}</style></defs><title>icon-arrow</title><g id="Capa_2" data-name="Capa 2"><g id="Capa_1-2" data-name="Capa 1"><g id="_Grupo_" data-name="&lt;Grupo&gt;"><g id="_Grupo_2" data-name="&lt;Grupo&gt;"><path class="cls-1" d="M11.92,1A10.92,10.92,0,1,1,1,11.92,10.93,10.93,0,0,1,11.92,1m0-1A11.92,11.92,0,1,0,23.83,11.92,11.92,11.92,0,0,0,11.92,0Z"/></g><path id="_Trazado_" data-name="&lt;Trazado&gt;" class="cls-2" d="M13.67,6.35l5.45,5.45a.15.15,0,0,1,0,.23l-5.45,5.45a.15.15,0,0,1-.23,0l-.7-.69,4.32-4.32H5.26a.59.59,0,0,1-.59-.6h0a.59.59,0,0,1,.59-.6H17L12.74,7.05l.7-.7a.15.15,0,0,1,.23,0Z"/></g></g></g></svg>