<svg xmlns="http://www.w3.org/2000/svg" viewBox="0 0 450 182.11"><defs><style>.cls-1{fill:#fedf00;}.cls-2{fill:#181818;}</style></defs><title>logo-wu</title><g id="Layer_1" data-name="Layer 1"><path class="cls-1" d="M40,41.35H410v99H40v-99m0-1.68c0,43.39,0,59.38,0,102.77H276.21c44.6,0,89.21.07,133.82,0C410,99,410,83.06,410,39.69c-38.1-.07-76.21,0-114.32,0H40m109,13c3.63-3,8.59-3.73,13.17-3.68,4.16,0,8.65.54,12,3.21a9.8,9.8,0,0,1,3.35,7.72q-6.24,0-12.47,0c-.22-1-.46-2.31-1.59-2.72-1.58-.42-3.65-.48-4.82.87A2.19,2.19,0,0,0,160,61.23c4.38,1.38,9,2.07,13.17,4.12a9.28,9.28,0,0,1,5,6,11.58,11.58,0,0,1-3,11c-3,2.7-7.08,3.69-11,4-5,.35-10.28.05-14.64-2.55a10.7,10.7,0,0,1-4.8-9.14q6.69,0,13.38,0c.21,1.19.4,2.62,1.54,3.31a4.15,4.15,0,0,0,5-.63,2.51,2.51,0,0,0-.24-3.66,19.5,19.5,0,0,0-4.4-1.55c-2.7-.82-5.44-1.56-8.11-2.44a9.23,9.23,0,0,1-5.7-4.86c-1.6-4.07-.83-9.28,2.64-12.17M355.75,49.4H360q0,39.3,0,78.59c-1.44,0-2.87,0-4.31,0q0-39.28,0-78.58m-308.51.46c4.16,0,8.33,0,12.49,0,.78,5.47,1.46,11,2.23,16.43a46.13,46.13,0,0,0,1,6.08c1.29-7.47,2.31-15,3.39-22.47,4.85-.1,9.71,0,14.57,0,.72,5.07,1.5,10.13,2.23,15.2a72.11,72.11,0,0,0,1.25,7.17c1.27-7.41,2.1-14.89,3.11-22.34,4.17-.07,8.34,0,12.52,0-2.5,11.88-5.17,23.73-7.66,35.62-5.09.07-10.18,0-15.27,0C75.9,77.82,75,70.05,73.65,62.37c-1.46,7.68-2.23,15.47-3.51,23.19-5.09,0-10.17,0-15.25,0-2.45-11.9-5.16-23.76-7.65-35.65m61.26,0q13.57,0,27.13,0c0,3.07,0,6.14,0,9.21-4.54,0-9.08,0-13.62,0,0,1.32,0,2.64,0,4,4.21,0,8.42,0,12.64,0,0,3,0,6.09,0,9.13-4.21.14-8.42,0-12.62.08,0,1.38,0,2.76,0,4.14,4.68,0,9.36,0,14,0q0,4.56,0,9.13c-9.18,0-18.36,0-27.55,0,0-11.87,0-23.75,0-35.62m77.94,9.43c0-3.15-.06-6.31,0-9.46,10.56.06,21.12,0,31.68.06,0,3.14,0,6.29-.07,9.43-2.92,0-5.84,0-8.76,0-.07,8.72,0,17.44-.05,26.16-4.66.06-9.32,0-14,0,0-8.73,0-17.45,0-26.18-2.94,0-5.87,0-8.81,0m41.1-9.43c9,0,18.06,0,27.08,0,0,3.07,0,6.13,0,9.2-4.56,0-9.11,0-13.66,0,0,1.32,0,2.63,0,3.95,4.18,0,8.35,0,12.53,0,.1,3.06,0,6.12.05,9.18-4.19.11-8.39,0-12.58,0,0,1.39,0,2.79,0,4.18,4.69,0,9.39,0,14.09,0,0,3,.06,6.11-.05,9.16-9.16-.09-18.33,0-27.5-.06,0-11.88,0-23.75,0-35.63m37.79,0c6.45,0,12.9,0,19.34,0,3.11,0,6.34.05,9.26,1.26a7.26,7.26,0,0,1,4.42,5.24c.55,2.73.37,5.91-1.54,8.11-1.34,1.64-3.4,2.37-5.36,3,1.58.45,3.38.66,4.57,1.91,1.62,1.51,1.79,3.84,2.09,5.89a64.89,64.89,0,0,0,1.72,10.28c-4.58,0-9.16.11-13.74-.07-.76-3.23-1.15-6.53-1.65-9.81a3.25,3.25,0,0,0-1-2.23c-1.26-.83-2.84-.62-4.27-.67,0,4.26,0,8.52,0,12.77-4.61,0-9.21.06-13.81,0q0-17.81,0-35.62M279.21,58c0,2.28,0,4.56,0,6.83,1.76,0,3.87.09,5.16-1.34,1.09-1.35,1.11-3.78-.41-4.82-1.43-.8-3.13-.61-4.71-.67m30.38-8.06q8.42,0,16.84,0c2.3,6.59,4.63,13.16,6.91,19.75a10.81,10.81,0,0,0,.86,1.78c.27-7.16,0-14.35.12-21.52,3.78,0,7.56,0,11.34,0q0,17.83,0,35.65c-5.64,0-11.28,0-16.92,0-1.87-5.65-3.91-11.24-5.83-16.88A31.28,31.28,0,0,0,321,63.84c-.17,7.22,0,14.45-.08,21.68-3.79.06-7.59,0-11.38,0,0-11.88,0-23.76,0-35.65m89.34.09a4.6,4.6,0,1,1-2.77,3,4.8,4.8,0,0,1,2.77-3m.39.41a4.07,4.07,0,0,0-2.66,4.53,4,4,0,0,0,4.7,3.39,4.09,4.09,0,0,0,3.06-5.18,3.94,3.94,0,0,0-5.1-2.74m-11.73,77.5q0-38.88,0-77.76c1.4,0,2.81,0,4.21,0,.17,25.92,0,51.84.07,77.75q-2.14,0-4.29,0m11.27-76.25c1.28.12,2.82-.35,3.92.5.77,1.15-.23,2.26-1.34,2.55A23,23,0,0,1,403,57c-1.72-.18-1.51-3-3.47-2.64-.21.86.47,2.29-.59,2.72-.11-1.82-.06-3.65-.06-5.47m.63.43c0,.64,0,1.29,0,1.93.94-.18,2.38.36,2.86-.76.1-1.59-1.89-1-2.88-1.17M276.3,92.23c5.2-.75,10.89-.38,15.39,2.58a16.34,16.34,0,0,1,6.91,10.82,27,27,0,0,1-.11,10.49,16.37,16.37,0,0,1-6.14,9.9c-3.75,2.75-8.58,3.57-13.14,3.33s-9.6-1.89-12.72-5.56c-3.39-3.9-4.48-9.29-4.25-14.34.17-4.44,1.49-9,4.61-12.34a16.53,16.53,0,0,1,9.45-4.88m3.48,9c-1.62.33-2.24,2.1-2.51,3.55a38.76,38.76,0,0,0-.15,11c.24,1.46.55,3.15,1.86,4a3.18,3.18,0,0,0,4.16-.86,11.36,11.36,0,0,0,1.19-4.87,43.94,43.94,0,0,0-.13-8,7.75,7.75,0,0,0-1.35-4,3.14,3.14,0,0,0-3.07-.81M144.4,92.81c4.65,0,9.3,0,14,0,0,7.81,0,15.62,0,23.42a3.83,3.83,0,0,0,1.55,3.4,2.79,2.79,0,0,0,3.57-.82,5.31,5.31,0,0,0,.68-3c0-7.66,0-15.32.05-23,4.66,0,9.32,0,14,0,0,7.22,0,14.45,0,21.67a20.94,20.94,0,0,1-.63,6.26,10.8,10.8,0,0,1-5.65,6.52c-4.2,2.11-9.05,2.3-13.65,2-3.72-.32-7.62-1.3-10.46-3.88a11.66,11.66,0,0,1-3.49-8.79c0-7.93,0-15.87,0-23.8m45.41,0c5.6,0,11.21,0,16.82,0,2.64,7.22,5,14.55,7.73,21.73.4-7.23.1-14.48.2-21.72,3.77,0,7.54,0,11.32,0q0,17.84,0,35.66c-5.63,0-11.25.05-16.88,0-1.92-5.43-3.78-10.89-5.7-16.32a38.28,38.28,0,0,0-2.07-5.36c-.23,7.24,0,14.48-.11,21.72H189.83c-.07-11.88,0-23.76,0-35.65m47.86,0c4.67,0,9.34,0,14,0v35.64c-4.67,0-9.35.09-14-.05q0-17.79,0-35.58m71.94,0c5.57,0,11.15.05,16.72,0,2.29,5.85,4.18,11.84,6.32,17.75.5,1.22.67,2.63,1.58,3.64.23-7.12,0-14.25.13-21.36,3.76,0,7.53,0,11.29,0q0,17.81,0,35.6c-5.64.07-11.28.1-16.92,0-2.47-7.21-4.95-14.41-7.53-21.58a13.09,13.09,0,0,0-.26,3.85q0,8.89,0,17.78c-3.79,0-7.57,0-11.36,0,0-11.87-.06-23.74,0-35.61"/><path class="cls-2" d="M40,39.67H295.69c38.11,0,76.22,0,114.32,0C410,83.06,410,99,410,142.4c-44.61.11-89.22,0-133.82,0H40c0-43.39,0-59.38,0-102.77m109,13c-3.47,2.89-4.24,8.1-2.64,12.17a9.23,9.23,0,0,0,5.7,4.86c2.67.88,5.41,1.62,8.11,2.44a19.5,19.5,0,0,1,4.4,1.55,2.51,2.51,0,0,1,.24,3.66,4.15,4.15,0,0,1-5,.63c-1.14-.69-1.33-2.12-1.54-3.31q-6.69,0-13.38,0a10.7,10.7,0,0,0,4.8,9.14c4.36,2.6,9.69,2.9,14.64,2.55,3.91-.31,8-1.3,11-4a11.58,11.58,0,0,0,3-11,9.28,9.28,0,0,0-5-6c-4.15-2-8.79-2.74-13.17-4.12a2.19,2.19,0,0,1-1.46-3.15c1.17-1.35,3.24-1.29,4.82-.87,1.13.41,1.37,1.68,1.59,2.72q6.22,0,12.47,0a9.8,9.8,0,0,0-3.35-7.72c-3.36-2.67-7.85-3.25-12-3.21-4.58,0-9.54.66-13.17,3.68M355.75,49.4q-.09,39.29,0,78.58c1.44,0,2.87,0,4.31,0q0-39.3,0-78.59h-4.28m-308.51.46c2.49,11.89,5.2,23.75,7.65,35.65,5.08.09,10.16,0,15.25,0,1.28-7.72,2-15.51,3.51-23.19C75,70.05,75.9,77.82,77.09,85.54c5.09,0,10.18,0,15.27,0C94.85,73.63,97.52,61.78,100,49.9c-4.18,0-8.35-.06-12.52,0-1,7.45-1.84,14.93-3.11,22.34a72.11,72.11,0,0,1-1.25-7.17C82.41,60,81.63,55,80.91,49.88c-4.86,0-9.72-.06-14.57,0-1.08,7.5-2.1,15-3.39,22.47a46.13,46.13,0,0,1-1-6.08c-.77-5.47-1.45-11-2.23-16.43-4.16,0-8.33,0-12.49,0m61.26,0c0,11.87,0,23.75,0,35.62,9.19.09,18.37,0,27.55,0q0-4.58,0-9.13c-4.68,0-9.36,0-14,0,0-1.38-.06-2.76,0-4.14,4.2-.07,8.41.06,12.62-.08,0-3,0-6.08,0-9.13-4.22,0-8.43,0-12.64,0,0-1.32,0-2.64,0-4,4.54,0,9.08,0,13.62,0,0-3.07,0-6.14,0-9.21q-13.56,0-27.13,0m77.94,9.43c2.94.08,5.87,0,8.81,0,0,8.73,0,17.45,0,26.18,4.66,0,9.32,0,14,0,.07-8.72,0-17.44.05-26.16,2.92,0,5.84,0,8.76,0,.11-3.14,0-6.29.07-9.43-10.56-.11-21.12,0-31.68-.06-.07,3.15,0,6.31,0,9.46m41.1-9.43c0,11.88,0,23.75,0,35.63,9.17.1,18.34,0,27.5.06.11-3,0-6.11.05-9.16-4.7,0-9.4,0-14.09,0,0-1.39,0-2.79,0-4.18,4.19,0,8.39.07,12.58,0,0-3.06,0-6.12-.05-9.18-4.18.05-8.35,0-12.53,0,0-1.32,0-2.63,0-3.95,4.55,0,9.1,0,13.66,0,.06-3.07,0-6.13,0-9.2-9,0-18.06,0-27.08,0m37.79,0q0,17.8,0,35.62c4.6.08,9.2,0,13.81,0,0-4.25,0-8.51,0-12.77,1.43,0,3-.16,4.27.67a3.25,3.25,0,0,1,1,2.23c.5,3.28.89,6.58,1.65,9.81,4.58.18,9.16,0,13.74.07a64.89,64.89,0,0,1-1.72-10.28c-.3-2.05-.47-4.38-2.09-5.89-1.19-1.25-3-1.46-4.57-1.91,2-.61,4-1.34,5.36-3,1.91-2.2,2.09-5.38,1.54-8.11a7.26,7.26,0,0,0-4.42-5.24c-2.92-1.21-6.15-1.27-9.26-1.26-6.44,0-12.89,0-19.34,0m44.26,0c0,11.89,0,23.77,0,35.65,3.79,0,7.59,0,11.38,0,.05-7.23-.09-14.46.08-21.68a31.28,31.28,0,0,1,1.87,4.79c1.92,5.64,4,11.23,5.83,16.88,5.64.08,11.28,0,16.92,0q0-17.82,0-35.65c-3.78,0-7.56,0-11.34,0-.09,7.17.15,14.36-.12,21.52a10.81,10.81,0,0,1-.86-1.78c-2.28-6.59-4.61-13.16-6.91-19.75q-8.43,0-16.84,0m89.34.09a4.8,4.8,0,0,0-2.77,3,4.63,4.63,0,1,0,2.77-3m-11.34,77.91q2.15,0,4.29,0c0-25.91.1-51.83-.07-77.75-1.4,0-2.81,0-4.21,0q-.08,38.87,0,77.76M276.3,92.23a16.53,16.53,0,0,0-9.45,4.88c-3.12,3.29-4.44,7.9-4.61,12.34-.23,5,.86,10.44,4.25,14.34,3.12,3.67,8,5.37,12.72,5.56s9.39-.58,13.14-3.33a16.37,16.37,0,0,0,6.14-9.9,27,27,0,0,0,.11-10.49,16.34,16.34,0,0,0-6.91-10.82c-4.5-3-10.19-3.33-15.39-2.58m-131.9.58c-.07,7.93,0,15.87,0,23.8a11.66,11.66,0,0,0,3.49,8.79c2.84,2.58,6.74,3.56,10.46,3.88,4.6.3,9.45.11,13.65-2a10.8,10.8,0,0,0,5.65-6.52,20.94,20.94,0,0,0,.63-6.26c0-7.22,0-14.45,0-21.67-4.67,0-9.33,0-14,0-.08,7.65,0,15.31-.05,23a5.31,5.31,0,0,1-.68,3,2.79,2.79,0,0,1-3.57.82,3.83,3.83,0,0,1-1.55-3.4c0-7.8,0-15.61,0-23.42-4.66,0-9.31,0-14,0m45.41,0c0,11.89-.05,23.77,0,35.65h11.29c.08-7.24-.12-14.48.11-21.72a38.28,38.28,0,0,1,2.07,5.36c1.92,5.43,3.78,10.89,5.7,16.32,5.63.09,11.25,0,16.88,0q0-17.84,0-35.66c-3.78,0-7.55,0-11.32,0-.1,7.24.2,14.49-.2,21.72-2.74-7.18-5.09-14.51-7.73-21.73-5.61,0-11.22,0-16.82,0m47.86,0q0,17.79,0,35.58c4.67.14,9.35,0,14,.05V92.82c-4.67,0-9.34,0-14,0m71.94,0c-.08,11.87,0,23.74,0,35.61,3.79.08,7.57,0,11.36,0q0-8.9,0-17.78a13.09,13.09,0,0,1,.26-3.85c2.58,7.17,5.06,14.37,7.53,21.58,5.64.11,11.28.08,16.92,0q0-17.8,0-35.6c-3.76,0-7.53,0-11.29,0-.16,7.11.1,14.24-.13,21.36-.91-1-1.08-2.42-1.58-3.64-2.14-5.91-4-11.9-6.32-17.75-5.57.09-11.15,0-16.72,0m89.71-42.43a3.94,3.94,0,0,1,5.1,2.74,4.09,4.09,0,0,1-3.06,5.18,4,4,0,0,1-4.7-3.39,4.07,4.07,0,0,1,2.66-4.53m-.46,1.25c0,1.82-.05,3.65.06,5.47,1.06-.43.38-1.86.59-2.72,2-.34,1.75,2.46,3.47,2.64a23,23,0,0,0-1.54-2.34c1.11-.29,2.11-1.4,1.34-2.55-1.1-.85-2.64-.38-3.92-.5m.63.43c1,.15,3-.42,2.88,1.17-.48,1.12-1.92.58-2.86.76,0-.64,0-1.29,0-1.93M279.21,58c1.58.06,3.28-.13,4.71.67,1.52,1,1.5,3.47.41,4.82-1.29,1.43-3.4,1.3-5.16,1.34.05-2.27,0-4.55,0-6.83m.57,43.25a3.14,3.14,0,0,1,3.07.81,7.75,7.75,0,0,1,1.35,4,43.94,43.94,0,0,1,.13,8,11.36,11.36,0,0,1-1.19,4.87,3.18,3.18,0,0,1-4.16.86c-1.31-.9-1.62-2.59-1.86-4a38.76,38.76,0,0,1,.15-11c.27-1.45.89-3.22,2.51-3.55"/></g></svg>