<svg xmlns="http://www.w3.org/2000/svg" viewBox="0 0 450 182.11"><defs><style>.cls-1{fill:#312782;fill-rule:evenodd;}</style></defs><title>logo-bbva</title><g id="Layer_1" data-name="Layer 1"><path class="cls-1" d="M315.56,52.91c6,0,7.14,1.48,9.24,7.77L348,129.2H327.32l-5-16.47H294.53l-5,16.48h-11.9L301,52.89l14.58,0Zm3.29,48.65h-21l10.42-34.82,10.56,34.82Z"/><path class="cls-1" d="M198.67,129.23H166.61V52.88h33.23c15.57,0,21,12.7,13.11,24.41l-3.72,5.53c26.13,13.57,17.63,46.41-10.56,46.41Zm-3.81-42.76,6.36-9.5a9,9,0,0,0,2-5.55,8.86,8.86,0,0,0-8.83-8.58h-9.79V119H190c9.07,0,16-4.9,16-16.38,0-9.46-4.45-14.52-11.09-16.13Z"/><path class="cls-1" d="M134.1,129.23H102V52.88h33.23c15.57,0,21,12.7,13.12,24.41l-3.73,5.53c26.13,13.57,17.64,46.41-10.56,46.41Zm-3.81-42.76,6.37-9.5a9,9,0,0,0,2-5.55,8.85,8.85,0,0,0-8.82-8.58H120V119h5.42c9.08,0,16-4.9,16-16.38,0-9.46-4.44-14.52-11.09-16.13Z"/><path class="cls-1" d="M274.5,52.88h12.05L263.29,129.2H245L220,52.89H233.5c5.21,0,6.58,1.35,9.3,10l14.45,48,17.25-58Z"/></g></svg>