<svg xmlns="http://www.w3.org/2000/svg" viewBox="0 0 450 182.11"><defs><style>.cls-1{fill:#0a83ba;}.cls-1,.cls-2{fill-rule:evenodd;}.cls-2{fill:#bdcd0d;}</style></defs><title>logo-banbif</title><g id="Layer_1" data-name="Layer 1"><path class="cls-1" d="M113.06,90.45c0,.16.18.19.29.25a16.49,16.49,0,0,1,8.2,11.16,42.38,42.38,0,0,1,.87,11.78,33.89,33.89,0,0,1-1.08,7.36,17.9,17.9,0,0,1-12.23,12.93,38.13,38.13,0,0,1-8.59,1.77c-2.71.27-5.43.3-8.15.3h-28a20.39,20.39,0,0,1-3.9-.31,9.78,9.78,0,0,1-1.21-.32,4.16,4.16,0,0,1-2.69-2.67,13.46,13.46,0,0,1-.61-3.78c0-.42,0-.84,0-1.26V57a19.61,19.61,0,0,1,.31-3.83,7.8,7.8,0,0,1,.35-1.28,4.17,4.17,0,0,1,2.65-2.61,12.86,12.86,0,0,1,3.54-.59c.6,0,1.21,0,1.81,0H92.12a51.44,51.44,0,0,1,12,1.27,27.91,27.91,0,0,1,4.4,1.43A17.56,17.56,0,0,1,119.2,63.77a37.57,37.57,0,0,1,.86,11.77A26,26,0,0,1,118.89,82a16.45,16.45,0,0,1-5.47,8.06C113.29,90.18,113.09,90.24,113.06,90.45ZM85.53,98.81v0H74.93c-.7,0-.7,0-.71.69v20.33c0,.16,0,.32,0,.48s.1.44.41.42h.63c5.92,0,11.83,0,17.75,0,1,0,2.09,0,3.13-.14a13,13,0,0,0,3.38-.68,5.4,5.4,0,0,0,3.52-3.63,11.31,11.31,0,0,0,.45-2.06,44.64,44.64,0,0,0,.12-7.84,15.22,15.22,0,0,0-.35-2.41,5.65,5.65,0,0,0-4.51-4.58,21.48,21.48,0,0,0-5-.55C91,98.79,88.28,98.81,85.53,98.81ZM84.27,63.94v0H74.85c-.61,0-.62,0-.63.6V82.74c0,.76,0,.77.61.77,5.73,0,11.46,0,17.19,0a17.36,17.36,0,0,0,5-.68,5.42,5.42,0,0,0,4-4.29,26.21,26.21,0,0,0,.38-7,13.89,13.89,0,0,0-.41-2.94A5.14,5.14,0,0,0,97.8,65a10.4,10.4,0,0,0-1.33-.45A19.13,19.13,0,0,0,91.65,64C89.19,63.91,86.73,63.94,84.27,63.94Z"/><path class="cls-1" d="M312.89,90.45a4.33,4.33,0,0,0,.39.26,16.44,16.44,0,0,1,8.11,10.77,34.73,34.73,0,0,1,1,8.24,42.91,42.91,0,0,1-.69,9.46,21,21,0,0,1-3.35,8.13,18.07,18.07,0,0,1-8.51,6.33,34.16,34.16,0,0,1-7.91,1.89,69.56,69.56,0,0,1-9,.47H264.26a20.59,20.59,0,0,1-3.68-.27c-2.91-.53-4.15-1.86-4.54-4.79a22.81,22.81,0,0,1-.18-3V56.74a18.94,18.94,0,0,1,.33-3.83A4.62,4.62,0,0,1,260.14,49a19.56,19.56,0,0,1,3.74-.33c10,0,20.06,0,30.08,0a41.12,41.12,0,0,1,12.3,1.85,20.52,20.52,0,0,1,7.63,4.22A17.85,17.85,0,0,1,319.17,64a36.25,36.25,0,0,1,.88,10.59,29.69,29.69,0,0,1-1,6.82,16.64,16.64,0,0,1-5.82,8.82Zm-27.47,8.36v0h-10.6c-.69,0-.69,0-.7.69v20.34c0,.15,0,.31,0,.47s.11.43.41.42h.63c5.89,0,11.78,0,17.67,0,1.07,0,2.14,0,3.21-.14a13.35,13.35,0,0,0,3.53-.72,5.38,5.38,0,0,0,3.37-3.48,10.5,10.5,0,0,0,.37-1.44,30.39,30.39,0,0,0,.34-6,23.35,23.35,0,0,0-.47-5.07,5.62,5.62,0,0,0-4.45-4.53,21,21,0,0,0-5-.56C291,98.79,288.2,98.81,285.42,98.81Zm-1.19-34.87v0h-9.42c-.67,0-.69,0-.69.61V82.9c0,.6,0,.61.61.61,5.75,0,11.51,0,17.26,0a18.08,18.08,0,0,0,4.74-.61,5.5,5.5,0,0,0,4.18-4.33q.13-.61.21-1.23a36.34,36.34,0,0,0,.12-6.43,10.49,10.49,0,0,0-.44-2.54,5.09,5.09,0,0,0-3-3.38,10.4,10.4,0,0,0-1.33-.45,19.14,19.14,0,0,0-4.82-.57C289.15,63.91,286.69,63.94,284.23,63.94Z"/><path class="cls-1" d="M167.55,131.28c-2.66,1.14-5.26,2.19-7.92,3.06a43.31,43.31,0,0,1-11.2,2.23,23.69,23.69,0,0,1-6.4-.47,13.25,13.25,0,0,1-9.47-7.77,31,31,0,0,1-2.36-7.87,86.84,86.84,0,0,1-1.09-13.76c-.05-3.61,0-7.22.32-10.82a45.69,45.69,0,0,1,2.33-12.14,21,21,0,0,1,1.72-3.61A13,13,0,0,1,142.53,74a27.46,27.46,0,0,1,8.91-.08,61.74,61.74,0,0,1,15.14,4.54l.73.29a.72.72,0,0,0,.21,0c.07-.25.16-.52.22-.78a4.37,4.37,0,0,1,3.36-3.37,14.62,14.62,0,0,1,2.72-.39,27.77,27.77,0,0,1,6.18.22,10.54,10.54,0,0,1,1.14.28,4.14,4.14,0,0,1,2.94,3,12.83,12.83,0,0,1,.44,2.95c0,.68,0,1.36,0,2q0,22.35,0,44.69a22.15,22.15,0,0,1-.31,4.22,4.6,4.6,0,0,1-3.93,3.94,18.8,18.8,0,0,1-3.43.33,23.45,23.45,0,0,1-5.16-.32,8.71,8.71,0,0,1-1.14-.31,4.15,4.15,0,0,1-2.69-2.76C167.78,132.09,167.68,131.72,167.55,131.28Zm-.25-26.14c0-3.74,0-7.49,0-11.23a.76.76,0,0,0-.48-.85,81.59,81.59,0,0,0-9.43-3.64,20.21,20.21,0,0,0-6.55-1,2.81,2.81,0,0,0-2.46,1.44,8.59,8.59,0,0,0-.89,2.25,26.72,26.72,0,0,0-.76,5.11,110.39,110.39,0,0,0,.14,17.25,18.71,18.71,0,0,0,.94,4.67c.73,2,1.68,2.63,3.8,2.56A20.63,20.63,0,0,0,156,121a81.26,81.26,0,0,0,10.6-3.84,1,1,0,0,0,.69-1C167.28,112.46,167.3,108.8,167.3,105.14Z"/><path class="cls-1" d="M209.93,78.76c1.88-.77,3.77-1.54,5.69-2.23a51.06,51.06,0,0,1,10.31-2.66,26.35,26.35,0,0,1,9.37.2,12.82,12.82,0,0,1,8.24,5.81,28.09,28.09,0,0,1,3.06,7.36,35.26,35.26,0,0,1,1.07,9.8c0,10.45,0,20.89,0,31.34a15.63,15.63,0,0,1-.42,3.73,4.42,4.42,0,0,1-3.34,3.4,11.57,11.57,0,0,1-2.47.4,28.9,28.9,0,0,1-6.89-.22,6.49,6.49,0,0,1-1.43-.41,4.13,4.13,0,0,1-2.45-2.49,10.36,10.36,0,0,1-.57-2.92c0-.73-.05-1.46-.05-2.19q0-15.63,0-31.26a23.88,23.88,0,0,0-.43-4.84,5.47,5.47,0,0,0-.41-1.26,3.07,3.07,0,0,0-3-1.94,21.34,21.34,0,0,0-6.09,1,80.68,80.68,0,0,0-9.58,3.71c-.32.14-.52.32-.47.7a3.35,3.35,0,0,1,0,.55q0,16.56,0,33.14a20,20,0,0,1-.34,4.37,4.5,4.5,0,0,1-3.57,3.73,12.38,12.38,0,0,1-2.17.33,27.08,27.08,0,0,1-6.73-.23,8.32,8.32,0,0,1-1.21-.33,4.15,4.15,0,0,1-2.64-2.71,9.53,9.53,0,0,1-.49-2.69c0-1-.09-2-.09-3q0-21.94,0-43.9a22,22,0,0,1,.36-4.92,4.37,4.37,0,0,1,3.58-3.6,24.89,24.89,0,0,1,6.56-.37,15.57,15.57,0,0,1,2.88.38A4.44,4.44,0,0,1,209.66,78c.05.2.1.4.16.6C209.84,78.67,209.89,78.7,209.93,78.76Z"/><path class="cls-1" d="M377,109.5v18.69a21.2,21.2,0,0,1-.19,3c-.38,2.68-1.58,4.06-4.23,4.55a24,24,0,0,1-8.36,0c-2.81-.48-4-1.88-4.39-4.74a24.13,24.13,0,0,1-.16-3.06q0-19.24,0-38.48c0-1.12.19-1-1-1.06a18,18,0,0,1-3.43-.32,4.55,4.55,0,0,1-3.87-3.72,14.44,14.44,0,0,1,0-6c.5-2.39,1.82-3.55,4.28-4a29.76,29.76,0,0,1,3.53-.24c.59,0,.59,0,.62-.6.12-2.72.25-5.44.6-8.14a40.24,40.24,0,0,1,1.87-8.25,10.78,10.78,0,0,1,6.18-6.51,24,24,0,0,1,7.34-1.86,72.24,72.24,0,0,1,9.42-.13,16.21,16.21,0,0,1,3.79.55c3.37.93,4.95,2.87,5.14,6.35a10.31,10.31,0,0,1-.19,2.66,6.58,6.58,0,0,1-4.05,4.86,14.92,14.92,0,0,1-5.75,1,19.85,19.85,0,0,0-3.53.18,3.66,3.66,0,0,0-3.38,3.54,38.47,38.47,0,0,0-.11,5.88c0,.25.1.4.37.39s.42,0,.63,0c2.27,0,4.55,0,6.83.11a11.44,11.44,0,0,1,2.47.38,4.28,4.28,0,0,1,3.18,3.16,14.13,14.13,0,0,1,.34,5.14,9,9,0,0,1-.36,1.92,4.37,4.37,0,0,1-3.1,3.07,11.74,11.74,0,0,1-3.17.46c-2.17,0-4.35,0-6.52,0-.71,0-.72,0-.72.73Z"/><path class="cls-1" d="M346.44,105.06q0,11.46,0,22.92a17.71,17.71,0,0,1-.36,4,4.46,4.46,0,0,1-3.51,3.6,11.47,11.47,0,0,1-2.24.35,27.72,27.72,0,0,1-6.81-.22,7.11,7.11,0,0,1-1.43-.42,4.13,4.13,0,0,1-2.37-2.47,11.41,11.41,0,0,1-.61-3.47c0-.62,0-1.25,0-1.88q0-22.33,0-44.68a23,23,0,0,1,.3-4.3,4.61,4.61,0,0,1,3.82-4,14.88,14.88,0,0,1,2.4-.32,26.74,26.74,0,0,1,6.26.22,9.9,9.9,0,0,1,1.22.31,4.2,4.2,0,0,1,2.84,2.9,14.62,14.62,0,0,1,.52,4.51Q346.45,93.59,346.44,105.06Z"/><path class="cls-2" d="M326.24,56.82A11.25,11.25,0,0,1,339,45.62a11.49,11.49,0,0,1,6.75,3.2A11.18,11.18,0,0,1,349,55.15a13,13,0,0,1-3.38,11.39,11.32,11.32,0,0,1-7.95,3.76,9.11,9.11,0,0,1-7.13-3.06,15.3,15.3,0,0,1-4.1-8.4A10.2,10.2,0,0,1,326.24,56.82Zm4.39-.64a7.46,7.46,0,0,0,2.28,5.34,4.31,4.31,0,0,0,4.43,1.07,6.29,6.29,0,0,0,3.65-9A5.64,5.64,0,0,0,334.73,51,5.46,5.46,0,0,0,330.63,56.18Z"/><path class="cls-1" d="M330.63,56.18a5.46,5.46,0,0,1,4.1-5.22A5.64,5.64,0,0,1,341,53.62a6.29,6.29,0,0,1-3.65,9,4.31,4.31,0,0,1-4.43-1.07A7.46,7.46,0,0,1,330.63,56.18Z"/></g></svg>