<svg xmlns="http://www.w3.org/2000/svg" viewBox="0 0 450 182.11"><defs><style>.cls-1{fill:#014b8e;}.cls-2{fill:#f57d31;}</style></defs><title>logo-bcp</title><g id="Layer_1" data-name="Layer 1"><path class="cls-1" d="M216.38,57.34c9-8.39,22.61-10.87,34.22-7.23,4.35,1.27,9.32,3.67,10.31,8.56.11,4-1.56,7.92-2.22,11.89-5.5-5.08-13.5-6.78-20.77-5.63-7.85,1.6-13.41,8.36-16.33,15.46-3.35,8.38-4.93,18-1.88,26.7a16,16,0,0,0,10.08,10.14c7.57,2.28,15.7-.58,21.34-5.83-1.12,5.07-1.67,10.27-3.08,15.26-1.43,4.13-6,5.61-9.91,6.33-10.25,1.87-22.08-.23-29.32-8.24-7.1-7.75-8.73-18.81-8.38-28.94C201,81.73,205.72,67,216.38,57.34Z"/><path class="cls-1" d="M147.9,51.74a108.89,108.89,0,0,1,23.07-2c7.08.39,14.69,1.89,19.94,7,6.25,6,6.43,16.54,1.4,23.31a21.85,21.85,0,0,1-12.53,8.24c3.92,1.63,7.78,4,9.71,7.92a24.52,24.52,0,0,1-5.66,28.31c-6.15,5.65-14.69,7.63-22.79,8.19-6,.22-12.23,0-18-1.84a10.15,10.15,0,0,1-6.53-6.5c-1.52-4.44-.92-9.26,0-13.76C140.37,91,144,71.35,147.9,51.74Zm14.22,12c-1,5.64-2.27,11.25-3.1,16.92-.27,1.59,1.65,2.26,2.92,2,5.14.2,10.94-.44,14.72-4.3,3.42-3.62,3.87-10.8-.91-13.48C171.61,62.64,166.64,63.7,162.12,63.79Zm-6,31.7c-1.33,5.38-2.11,10.89-3.26,16.31-.38,2.33-1.54,4.9.21,7,5.46,0,11.36.38,16.14-2.79,5.74-3.34,7.63-12.33,2.87-17.24C167.74,94.79,161.5,95.71,156.12,95.49Z"/><path class="cls-1" d="M271.46,52.22c5.29-1.69,10.94-1.81,16.46-2,7.61-.11,15.74.12,22.43,4.2,5.16,2.93,8.25,8.65,8.88,14.44,1.77,12.86-4.62,26.72-16.18,32.93-7.61,4.35-16.6,4.59-25.12,4-1.39,6.37-2.32,12.84-3.78,19.19-.75,3.36-2.89,6.66-6.34,7.68-3.92.37-7.87,0-11.79.15C261.41,106,266.15,79.05,271.46,52.22Zm15.3,12.17c-1.48,7.78-3,15.55-4.39,23.34-.48,1.58.65,3,2,3.74a18,18,0,0,0,12.19-2c6.87-4.06,9.76-13.56,6.61-20.8C299.88,62.91,292.31,63.9,286.76,64.39Z"/><path class="cls-1" d="M99.32,56.2a6.93,6.93,0,0,1,8.18,1.53c3.1,4.72,3.25,10.59,3.1,16a39.23,39.23,0,0,1-2.4,13A58.64,58.64,0,0,0,88.38,70.38C90.38,64.68,93.8,59,99.32,56.2Z"/><path class="cls-1" d="M327.07,70.2c2.47-5.75,5.83-11.89,11.94-14.36,3.09-1.18,6.34.42,8.2,2.93,3.66,8.91,2.79,18.9-.08,27.9A65.53,65.53,0,0,0,327.07,70.2Z"/><path class="cls-2" d="M107.5,57.73c8,5,14.35,12.09,19.6,19.8,4.35,6.41,4.79,15.38.57,22-5.15,8.56-12.73,15.36-20.48,21.52-4.39,3.27-9.66,7.17-15.46,5.65-5.44-1.38-8.79-6.26-11.22-11,11.62-6.82,22.95-15.89,27.69-29a39.23,39.23,0,0,0,2.4-13C110.75,68.32,110.6,62.45,107.5,57.73Z"/><path class="cls-2" d="M347.21,58.77c7,3.52,12,9.94,16.73,16,3.66,4.47,6,10.21,5.47,16.07-.39,5-3,9.42-6,13.29A94.56,94.56,0,0,1,342,123.88c-3.31,2.13-7.37,4-11.36,2.77-5.44-1.37-9.06-6.2-11.26-11.08,11.83-6.55,22.83-16,27.78-28.9C350,77.67,350.87,67.68,347.21,58.77Z"/></g></svg>