<svg xmlns="http://www.w3.org/2000/svg" viewBox="0 0 450 182.11"><defs><style>.cls-1{fill:#e20613;fill-rule:evenodd;}</style></defs><title>logo-scotia</title><g id="Layer_1" data-name="Layer 1"><path class="cls-1" d="M47.39,90.84c-2.19-3.48-2.66-8.1-2.66-11.65,0-12.09,10.79-22.29,22-22.29H102L88.33,70.7H66.53c-8.77,0-19.37,8.89-19.14,20.14ZM60.84,81a19.61,19.61,0,0,1,6.41-8.58C62.14,72.37,56.4,74.8,52,81Zm7-6.86A22.73,22.73,0,0,0,62.58,81H73.15a23.39,23.39,0,0,0-5.26-6.86ZM51.14,82.74a19.4,19.4,0,0,0-2.2,7.7h9.89a22.31,22.31,0,0,1,1.36-7.7Zm10.77,0a30,30,0,0,0-1.53,7.7h15a30,30,0,0,0-1.53-7.7ZM83.52,81c-4.19-6.15-9.94-8.58-15-8.58A22.15,22.15,0,0,1,74.94,81Zm-7.93,1.79a21.82,21.82,0,0,1,1.31,7.7h9.89a17.62,17.62,0,0,0-2.2-7.7ZM52,101.21c4.38,6.41,10.12,8.6,15.23,8.6a20.31,20.31,0,0,1-6.41-8.6Zm15.87,7.05a24.22,24.22,0,0,0,5.26-7.05H62.58a23.52,23.52,0,0,0,5.31,7.05Zm-7.7-8.58A24.93,24.93,0,0,1,58.83,92H48.94a20.07,20.07,0,0,0,2.2,7.7Zm13.63,0A31.21,31.21,0,0,0,75.35,92h-15a31.21,31.21,0,0,0,1.53,7.7Zm1.12,1.53a23,23,0,0,1-6.38,8.6c5,0,10.77-2.19,15-8.6Zm9.65-1.53a18.17,18.17,0,0,0,2.2-7.7H76.9a24.23,24.23,0,0,1-1.31,7.7Zm3.74-8.6c.24,11.68-10.31,20.49-19.13,20.49H47.39L33.72,125.2H69c11.25,0,22-10.12,22-22.2,0-3.56-.42-8.18-2.67-11.68v-.24Z"/><path class="cls-1" d="M191.37,109.77c-9.16,0-15.71-5.51-15.71-14.11s6.79-14.16,15.71-14.16,15.72,5.62,15.72,14.16-6.62,14.11-15.72,14.11ZM348,82.16v27h-9.14l-.14-2.73h-.2c-1,.91-3.12,3.32-9,3.32-6.53,0-12.26-5.67-12.26-14.14,0-7.85,5.08-14.12,12.86-14.12,5.29,0,7.46,2.33,8.27,3.08h.24l.09-2.45Zm-70.52,0v27H268.3l-.14-2.73H268c-1,.92-3.13,3.32-9,3.32-6.53,0-12.25-5.67-12.25-14.13,0-7.86,5.07-14.13,12.85-14.13,5.3,0,7.46,2.34,8.27,3.08h.24l.1-2.45Zm-44.38,0h9.42v27.06h-9.42V82.19Zm50.45,27V71.06h9.38V84.12H293a14.72,14.72,0,0,1,8.16-2.59c7.31,0,12.69,5.88,12.69,13.65,0,9.72-6,14.61-12.75,14.61-5.13,0-7.73-2.39-8.38-3.08h-.15l-.13,2.48ZM191.37,103c3.82,0,6.07-3.35,6.07-7.34s-2.14-7.4-6.07-7.4c-4.1,0-6.07,3.35-6.07,7.4s2.26,7.34,6.07,7.34Zm37.12-1.16a11.55,11.55,0,0,1-2.6.46c-1.9,0-4-.9-4-4.2V89h5.92v-6.8H221.9V73.45h-9.4v8.71h-4.12V89h4.12V99.65c0,5.88,2.73,10.1,9.69,10.1a28.17,28.17,0,0,0,5.14-.51l1.16-7.4Zm-107,6.37a39.68,39.68,0,0,0,10.87,1.53c8,0,16-2.85,16-11.66,0-12.1-16.68-10.42-16.68-15.24,0-2.47,2.56-3,5.08-3,3.48,0,7.89,1.67,8.87,2.07l.76-8.33a32.58,32.58,0,0,0-9.6-1.3c-7.93,0-15.75,3.09-15.75,10.94,0,11.89,16.64,9.41,16.64,15.64,0,2.4-2.4,3.31-5.45,3.31-4.2,0-8.15-2.1-9.86-2.86l-.92,8.9ZM327.17,95.4c0,4.47,2.5,7.27,5.73,7.27,2.93,0,5.78-2.74,5.78-6.9s-2.53-7.06-5.78-7.06-5.73,3-5.73,6.69Zm-70.51,0c0,4.47,2.49,7.26,5.72,7.26,2.93,0,5.78-2.74,5.78-6.89s-2.53-7.06-5.78-7.06-5.72,3-5.72,6.69Zm-83.4-12.83a22.44,22.44,0,0,0-6.71-1.09c-8.47,0-14.83,5.31-14.83,14.14,0,8,5.71,14.14,14.45,14.14a22.37,22.37,0,0,0,7.09-1.19l-.46-7.88a11.07,11.07,0,0,1-4.76,1.4,6.29,6.29,0,0,1-6.57-6.47,6.37,6.37,0,0,1,6.68-6.53,10.61,10.61,0,0,1,4.65,1.32l.46-7.84ZM388,109.21h9.38V96.7h.1l8.34,12.51h10.43l-10-14.33L416,82.21H405.6l-8.09,11.15h-.1V71.09H388v38.12Zm-34,0h9.15v-14c0-3.27,2.17-5.51,4.95-5.51,3.16,0,5,2.06,5,5.51v14h9.16V92.93c0-6.13-3.95-11.37-11.19-11.37a11.64,11.64,0,0,0-8.5,3.66h-.19l-.09-3H354v27ZM237.77,68.49a5.29,5.29,0,1,0,5.28,5.29,5.31,5.31,0,0,0-5.28-5.29Zm66.34,27.18c0-3.62-2.06-6.83-5.66-6.83-3.16,0-5.7,2.7-5.7,6.83s2.08,6.85,5.7,6.85c3.27,0,5.66-2.72,5.66-6.85Z"/></g></svg>