<svg xmlns="http://www.w3.org/2000/svg" viewBox="0 0 136.87 50.29"><defs><style>.cls-1{fill:#211916;}.cls-2{fill:#fff;}.cls-2,.cls-3,.cls-4,.cls-5,.cls-6{fill-rule:evenodd;}.cls-3{fill:#fcc802;}.cls-4{fill:#e0aa00;}.cls-5{fill:#ffd87f;}.cls-6{fill:#efb702;}.cls-7{fill:#1d1d1b;}</style></defs><title>logo-pagoefectivo</title><g id="Capa_2" data-name="Capa 2"><g id="Capa_1-2" data-name="Capa 1"><g id="_Grupo_" data-name="&lt;Grupo&gt;"><g id="_Grupo_2" data-name="&lt;Grupo&gt;"><path id="_Trazado_" data-name="&lt;Trazado&gt;" class="cls-1" d="M67.89,4.65A11.12,11.12,0,0,0,62.13,3.4,45.88,45.88,0,0,0,56,3.76a1.79,1.79,0,0,0-.77.24.89.89,0,0,0-.38.55l-.48,2.36H61.1l.35-2.17,4.41,5.32-6.12,5.23.39-2.43h-7L51.09,23v.1a.41.41,0,0,0,.13.32.59.59,0,0,0,.35.12h3.11a.83.83,0,0,0,.45-.15.64.64,0,0,0,.26-.39l1.43-6.06.5,0c.23,0,.47,0,.72,0l.79,0,.73,0a18.06,18.06,0,0,0,4.61-.54,8.09,8.09,0,0,0,3.49-1.92c1-.91,1.68-3.11,2.1-4.74l.07-.23a3.75,3.75,0,0,0,.09-.94V8.23A4,4,0,0,0,67.89,4.65Z"/><g id="_Grupo_3" data-name="&lt;Grupo&gt;"><path id="_Trazado_compuesto_" data-name="&lt;Trazado compuesto&gt;" class="cls-1" d="M75.14,12a10.67,10.67,0,0,0-2.06.19c-.66.13-1.36.29-2.1.49a1.94,1.94,0,0,1-.42.08c-.16,0-.24-.09-.24-.26a5.19,5.19,0,0,1,.08-.63l.23-1.31a.77.77,0,0,1,.08-.29.5.5,0,0,1,.2-.21,2.56,2.56,0,0,1,.4-.19A15.29,15.29,0,0,1,76,9.12a5.33,5.33,0,0,1,3.45,1A3.46,3.46,0,0,1,80.68,13a6.29,6.29,0,0,1-.1,1.17L79,23.06a1,1,0,0,1-.13.39.72.72,0,0,1-.33.19L77,24c-.39.08-.88.14-1.47.2a20.33,20.33,0,0,1-2,.09c-3.68,0-5.51-1.22-5.51-3.66a7.05,7.05,0,0,1,.11-1.15,6.2,6.2,0,0,1,.65-1.95A3.59,3.59,0,0,1,70,16.24a5.34,5.34,0,0,1,2-.73,15.36,15.36,0,0,1,2.92-.23h2c.18-1,.28-1.65.28-1.83a1.24,1.24,0,0,0-.48-1.14A3,3,0,0,0,75.14,12Zm.65,9.46.71-3.88h-2a4.16,4.16,0,0,0-2.19.42,2.27,2.27,0,0,0-.82,1.55,4.87,4.87,0,0,0,0,.66A1.23,1.23,0,0,0,72,21.32a3.6,3.6,0,0,0,1.86.36A6.67,6.67,0,0,0,75.79,21.46Z"/><path id="_Trazado_compuesto_2" data-name="&lt;Trazado compuesto&gt;" class="cls-1" d="M86.56,29.34A12.18,12.18,0,0,1,83.91,29a11.38,11.38,0,0,1-2.33-.76c-.29-.15-.43-.33-.43-.52v-.17l.22-1.23c0-.3.17-.45.39-.45a.74.74,0,0,1,.24,0c.67.16,1.43.32,2.27.45a17.62,17.62,0,0,0,2.49.19A3.52,3.52,0,0,0,88.9,26a2.6,2.6,0,0,0,.8-1.83l0-.2a13.4,13.4,0,0,1-2.4.25,6.1,6.1,0,0,1-4-1.21,4.53,4.53,0,0,1-1.5-3.74,9.68,9.68,0,0,1,.13-1.6l.35-2a10.41,10.41,0,0,1,1.35-3.87,5.41,5.41,0,0,1,2.43-2.07,9.62,9.62,0,0,1,3.7-.64,19.74,19.74,0,0,1,2.68.19A18.46,18.46,0,0,1,95,9.8a1.55,1.55,0,0,1,.47.19.39.39,0,0,1,.14.33s0,.07,0,.09,0,.06,0,.09L93.18,24a9,9,0,0,1-1.07,3.09,4.15,4.15,0,0,1-2,1.68A9.71,9.71,0,0,1,86.56,29.34Zm5.25-17.16A10.55,10.55,0,0,0,90.72,12c-.42,0-.88-.06-1.39-.06a3.41,3.41,0,0,0-1.75.4,2.77,2.77,0,0,0-1.12,1.22,7.41,7.41,0,0,0-.63,2.13l-.35,2a11.14,11.14,0,0,0-.18,1.65A2.09,2.09,0,0,0,85.83,21a2.59,2.59,0,0,0,1.81.51,21.4,21.4,0,0,0,2.57-.2Z"/><path id="_Trazado_compuesto_3" data-name="&lt;Trazado compuesto&gt;" class="cls-1" d="M109.41,14.28a7.76,7.76,0,0,1-.14,1.37l-.39,2.11q-1.23,6.54-7.44,6.53a5.52,5.52,0,0,1-2.9-.72,4.45,4.45,0,0,1-1.79-1.91A5.87,5.87,0,0,1,96.16,19a8.08,8.08,0,0,1,.1-1.27l.4-2.11a8.23,8.23,0,0,1,2.49-4.89,7.28,7.28,0,0,1,5-1.64,5.88,5.88,0,0,1,3,.69,4.15,4.15,0,0,1,1.75,1.87A6.11,6.11,0,0,1,109.41,14.28Zm-3.51.21a2.5,2.5,0,0,0-.57-1.79,2.29,2.29,0,0,0-1.73-.6,3.14,3.14,0,0,0-2.21.84,4.8,4.8,0,0,0-1.24,2.71l-.41,2.11a7.49,7.49,0,0,0-.09,1.17A2.07,2.07,0,0,0,102,21.31c1.86,0,3-1.18,3.44-3.55l.39-2.11A6.09,6.09,0,0,0,105.9,14.49Z"/></g><g id="_Grupo_4" data-name="&lt;Grupo&gt;"><path id="_Trazado_compuesto_4" data-name="&lt;Trazado compuesto&gt;" class="cls-1" d="M61.51,27a.25.25,0,0,1,0,.09.89.89,0,0,1,0,.11l-.29,1.67a.65.65,0,0,1-.23.37.68.68,0,0,1-.4.16H55.18a2.53,2.53,0,0,0-1.71.48,3,3,0,0,0-.77,1.77l-.5,2.83h7.14a.44.44,0,0,1,.33.14.46.46,0,0,1,.13.31V35l-.35,1.88a.67.67,0,0,1-.23.37.64.64,0,0,1-.4.15H51.67l-.58,3.39a5.91,5.91,0,0,0-.07.86,1.29,1.29,0,0,0,.4,1.08,2.27,2.27,0,0,0,1.36.32h5.38c.28,0,.42.13.42.41v.11l-.29,1.68c0,.31-.25.49-.63.55l-.73.11c-.3,0-.72.09-1.27.14l-1.36.08c-.37,0-.93,0-1.72,0a6.52,6.52,0,0,1-3.8-1A3.55,3.55,0,0,1,47.34,42a8.06,8.06,0,0,1,.1-1.23l1.62-9.15a8.59,8.59,0,0,1,.93-2.8,4.75,4.75,0,0,1,1.52-1.64,5.26,5.26,0,0,1,2-.74,15.1,15.1,0,0,1,2.62-.2c1.4,0,2.42,0,3.07.1s1.27.15,1.89.27C61.36,26.66,61.51,26.79,61.51,27Z"/><path id="_Trazado_compuesto_5" data-name="&lt;Trazado compuesto&gt;" class="cls-1" d="M72.05,26.24v.05l-.26,1.55a.49.49,0,0,1-.18.33.48.48,0,0,1-.29.12H70.14a2.89,2.89,0,0,0-1,.13.9.9,0,0,0-.53.45,3.3,3.3,0,0,0-.31,1l-.23,1.28h2.52a.4.4,0,0,1,.46.45v.08l-.29,1.58a.56.56,0,0,1-.21.35.59.59,0,0,1-.39.14H67.6L65.41,46.09a6.26,6.26,0,0,1-1,2.68A3.26,3.26,0,0,1,62.66,50a9.21,9.21,0,0,1-2.56.3,7.75,7.75,0,0,1-1.54-.21.55.55,0,0,1-.28-.12.3.3,0,0,1-.12-.25v-.05l.25-1.55c.06-.3.21-.45.48-.45h1.18a2.11,2.11,0,0,0,1.33-.31,2.18,2.18,0,0,0,.53-1.26l2.19-12.35-2.3-.37q-.42-.07-.42-.42v-.08l.21-1.2a.63.63,0,0,1,.21-.38.55.55,0,0,1,.4-.15h2.34l.24-1.28a8,8,0,0,1,.72-2.22,3.61,3.61,0,0,1,1.12-1.27,4.2,4.2,0,0,1,1.47-.56,12.59,12.59,0,0,1,2-.14,8.12,8.12,0,0,1,1.55.2.47.47,0,0,1,.27.12A.3.3,0,0,1,72.05,26.24Z"/><path id="_Trazado_compuesto_6" data-name="&lt;Trazado compuesto&gt;" class="cls-1" d="M75.43,46.13a7.48,7.48,0,0,1-2.32-.32,4.66,4.66,0,0,1-1.76-1,4.5,4.5,0,0,1-1.13-1.66,6.12,6.12,0,0,1-.39-2.26A9.25,9.25,0,0,1,70,39.3l.3-1.63a8.3,8.3,0,0,1,2.5-5.13,7.53,7.53,0,0,1,5-1.57,4.87,4.87,0,0,1,3.85,1.48A5.56,5.56,0,0,1,83,36.33a9.41,9.41,0,0,1-.13,1.5l-.22,1.25c-.08.45-.29.67-.63.67H73.36c-.08.6-.12,1-.12,1.07a2.26,2.26,0,0,0,.66,1.76,3.46,3.46,0,0,0,2.32.6,16,16,0,0,0,4.66-.82.86.86,0,0,1,.25,0,.23.23,0,0,1,.26.26.48.48,0,0,1,0,.18l-.29,1.68a.71.71,0,0,1-.17.38,1.93,1.93,0,0,1-.52.31,12.72,12.72,0,0,1-1.39.48A14.54,14.54,0,0,1,77.3,46,11.2,11.2,0,0,1,75.43,46.13Zm4.09-9.85a2.35,2.35,0,0,0-.59-1.73,2.23,2.23,0,0,0-1.69-.6q-2.82,0-3.42,3.33h5.59A6.15,6.15,0,0,0,79.52,36.28Z"/><path id="_Trazado_compuesto_7" data-name="&lt;Trazado compuesto&gt;" class="cls-1" d="M88.9,46.13a5.41,5.41,0,0,1-2-.34,4.6,4.6,0,0,1-1.61-1,4.65,4.65,0,0,1-1.06-1.61,5.55,5.55,0,0,1-.35-2A8,8,0,0,1,84,39.78l.45-2.45a9.55,9.55,0,0,1,1.46-3.78,5.68,5.68,0,0,1,2.41-2A8.15,8.15,0,0,1,91.47,31a7.27,7.27,0,0,1,3.37.83c.32.17.48.34.48.53v.08a.14.14,0,0,0,0,.07L95,34.05c0,.3-.17.45-.42.45a.58.58,0,0,1-.21,0,12.13,12.13,0,0,0-3-.57,3.15,3.15,0,0,0-2.22.76,4.82,4.82,0,0,0-1.18,2.67l-.44,2.45a8.41,8.41,0,0,0-.13,1.27,2.08,2.08,0,0,0,.57,1.64,2.52,2.52,0,0,0,1.75.51,12,12,0,0,0,3.24-.62.7.7,0,0,1,.24,0,.23.23,0,0,1,.26.26.58.58,0,0,1,0,.19l-.31,1.78a.64.64,0,0,1-.2.4,2.05,2.05,0,0,1-.49.28,9.39,9.39,0,0,1-1.57.49A9.64,9.64,0,0,1,88.9,46.13Z"/><path id="_Trazado_compuesto_8" data-name="&lt;Trazado compuesto&gt;" class="cls-1" d="M105.36,31.59v.08l-.26,1.55a.7.7,0,0,1-.63.52H102.1L100.64,42a5.82,5.82,0,0,0-.12.9.47.47,0,0,0,.19.45,1.59,1.59,0,0,0,.7.11h1.4c.31,0,.47.1.47.32v.08L103,45.48a.61.61,0,0,1-.58.48,12.09,12.09,0,0,1-1.82.17,4.5,4.5,0,0,1-2.7-.67,2.62,2.62,0,0,1-.89-2.2A9.17,9.17,0,0,1,97.13,42l1.45-8.24-2.42-.37a.41.41,0,0,1-.42-.45v-.07L96,31.67a.66.66,0,0,1,.19-.38.63.63,0,0,1,.41-.15H99l.4-2.14c0-.3.25-.47.6-.53l2.52-.43h.12q.36,0,.36.33v.07l-.5,2.7h2.38a.41.41,0,0,1,.32.13A.44.44,0,0,1,105.36,31.59Z"/><path id="_Trazado_compuesto_9" data-name="&lt;Trazado compuesto&gt;" class="cls-1" d="M110.32,31.59v.08l-2.41,13.71a.75.75,0,0,1-.24.39.59.59,0,0,1-.41.16h-2.42a.42.42,0,0,1-.31-.13.47.47,0,0,1-.12-.32v-.1l2.44-13.71a.63.63,0,0,1,.21-.38.6.6,0,0,1,.39-.15h2.42A.4.4,0,0,1,110.32,31.59Zm1-5.32v.07l-.43,2.31a.62.62,0,0,1-.22.38.59.59,0,0,1-.39.14h-2.56a.54.54,0,0,1-.33-.12.4.4,0,0,1-.15-.31v-.09l.43-2.31A.6.6,0,0,1,108,26a.63.63,0,0,1,.39-.16h2.56A.4.4,0,0,1,111.36,26.27Z"/><path id="_Trazado_compuesto_10" data-name="&lt;Trazado compuesto&gt;" class="cls-1" d="M125,31.49a.68.68,0,0,1,0,.26l-5.44,11.93a4,4,0,0,1-1.59,1.89,4.2,4.2,0,0,1-2.14.56c-1.74,0-2.69-.81-2.84-2.45L111.7,31.75V31.7a.56.56,0,0,1,.15-.39.45.45,0,0,1,.34-.17h2.54c.27,0,.42.18.45.53l.57,11c0,.43.16.65.4.65s.42-.22.6-.65l4.49-11c.13-.35.34-.53.63-.53h2.75A.31.31,0,0,1,125,31.49Z"/><path id="_Trazado_compuesto_11" data-name="&lt;Trazado compuesto&gt;" class="cls-1" d="M136.87,36.12a7.67,7.67,0,0,1-.14,1.37l-.4,2.12q-1.23,6.53-7.44,6.52a5.51,5.51,0,0,1-2.89-.71,4.56,4.56,0,0,1-1.79-1.91,5.74,5.74,0,0,1-.59-2.63,7,7,0,0,1,.1-1.27l.4-2.12a8.28,8.28,0,0,1,2.48-4.88,7.26,7.26,0,0,1,5-1.64,5.91,5.91,0,0,1,3,.69,4.16,4.16,0,0,1,1.74,1.86A6,6,0,0,1,136.87,36.12Zm-3.51.21a2.43,2.43,0,0,0-.58-1.78,2.28,2.28,0,0,0-1.72-.6,3.11,3.11,0,0,0-2.21.84,4.74,4.74,0,0,0-1.25,2.7l-.4,2.12a6.25,6.25,0,0,0-.11,1.16,2.08,2.08,0,0,0,2.33,2.38q2.78,0,3.44-3.54l.38-2.12A5.23,5.23,0,0,0,133.36,36.33Z"/></g></g><g id="_Grupo_5" data-name="&lt;Grupo&gt;"><path id="_Trazado_2" data-name="&lt;Trazado&gt;" class="cls-2" d="M46.79,23.78a7.21,7.21,0,0,0-1.74-2.52l.12.07A101.69,101.69,0,0,0,10.39.44,5.91,5.91,0,0,0,4,1.76,8.73,8.73,0,0,0,2.37,5.41,5.94,5.94,0,0,0,2.23,6C2,6.9,1.92,7.6,1.85,7.87h0A102.31,102.31,0,0,0,1.56,45s.7,4.38,4.56,4.82c2.26.26,4-.48,6.16-1.35A104.85,104.85,0,0,0,44.7,30,5.82,5.82,0,0,0,46.79,23.78Z"/><g id="_Grupo_6" data-name="&lt;Grupo&gt;"><path id="_Trazado_3" data-name="&lt;Trazado&gt;" class="cls-3" d="M7.67,4.63S34.4,12.82,43,22.41c0,0-20.88,21.4-33.76,25.26,0,0-8-20.45-5.56-39C3.72,8.69,4.11,3.41,7.67,4.63Z"/><path id="_Trazado_4" data-name="&lt;Trazado&gt;" class="cls-4" d="M10.05,47.42A94,94,0,0,0,42.5,29.65,5.31,5.31,0,0,0,44.4,24c-.55-1.78-3.42-3.9-3.89-4.37C40.51,19.63,40.9,30.65,10.05,47.42Z"/><path id="_Trazado_5" data-name="&lt;Trazado&gt;" class="cls-5" d="M42.92,21.78a92.46,92.46,0,0,0-31.64-19A5.36,5.36,0,0,0,5.41,4C4.13,5.33,3.67,8.88,3.5,9.52,3.5,9.52,12.85,3.67,42.92,21.78Z"/><path id="_Trazado_6" data-name="&lt;Trazado&gt;" class="cls-6" d="M4.13,6.77a91,91,0,0,0-.89,36.55s.63,4,4.14,4.39c2.15.25,3.73-.49,5.88-1.34C13.26,46.37,3.16,41.7,4.13,6.77Z"/><path id="_Trazado_7" data-name="&lt;Trazado&gt;" class="cls-7" d="M29,15a14.14,14.14,0,0,0-7.35-1.6,59.79,59.79,0,0,0-7.86.45,2.46,2.46,0,0,0-1,.31,1.2,1.2,0,0,0-.49.72l-.61,3h8.63l.46-2.78L26.37,22l-7.82,6.68.5-3.11H10.12L7.49,38.45v.13a.53.53,0,0,0,.17.41.68.68,0,0,0,.45.15h4a1,1,0,0,0,.58-.2.75.75,0,0,0,.33-.49l1.82-7.74.65,0,.91,0,1,0,.93,0a23.46,23.46,0,0,0,5.89-.69,10.23,10.23,0,0,0,4.46-2.45c1.25-1.17,2.14-4,2.68-6.06l.1-.3a4.61,4.61,0,0,0,.12-1.2v-.54A5.06,5.06,0,0,0,29,15Z"/></g></g></g></g></g></svg>