<?xml version="1.0" encoding="utf-8"?>
<!-- Generator: Adobe Illustrator 22.0.0, SVG Export Plug-In . SVG Version: 6.00 Build 0)  -->
<svg version="1.1" id="Capa_1" xmlns="http://www.w3.org/2000/svg" xmlns:xlink="http://www.w3.org/1999/xlink" x="0px" y="0px"
	 viewBox="0 0 450 182.1" style="enable-background:new 0 0 450 182.1;" xml:space="preserve">
<style type="text/css">
	.st0{fill:#014B8E;}
	.st1{fill:#F57D31;}
</style>
<title>logo-bcp</title>
<g id="Layer_1">
	<path class="st0" d="M216.4,63c9-7,22.6-9.1,34.2-6c4.4,1.1,9.3,3.1,10.3,7.1c0.1,3.3-1.6,6.6-2.2,9.9c-5.5-4.2-13.5-5.6-20.8-4.7
		c-7.9,1.3-13.4,7-16.3,12.9c-3.4,7-4.9,15-1.9,22.2c1.6,4,5.3,7.1,10.1,8.4c7.6,1.9,15.7-0.5,21.3-4.9c-1.1,4.2-1.7,8.6-3.1,12.7
		c-1.4,3.4-6,4.7-9.9,5.3c-10.3,1.6-22.1-0.2-29.3-6.9c-7.1-6.5-8.7-15.7-8.4-24.1C201,83.3,205.7,71,216.4,63z"/>
	<path class="st0" d="M147.9,58.3c7.6-1.2,15.3-1.8,23.1-1.7c7.1,0.3,14.7,1.6,19.9,5.8c6.3,5,6.4,13.8,1.4,19.4
		c-3.1,3.4-7.5,5.9-12.5,6.9c3.9,1.4,7.8,3.3,9.7,6.6c4.5,8,2.2,17.6-5.7,23.6c-6.1,4.7-14.7,6.4-22.8,6.8c-6,0.2-12.2,0-18-1.5
		c-3.1-0.8-5.5-2.8-6.5-5.4c-1.5-3.7-0.9-7.7,0-11.5C140.4,91,144,74.6,147.9,58.3z M162.1,68.3c-1,4.7-2.3,9.4-3.1,14.1
		c-0.3,1.3,1.6,1.9,2.9,1.7c5.1,0.2,10.9-0.4,14.7-3.6c3.4-3,3.9-9-0.9-11.2C171.6,67.4,166.6,68.3,162.1,68.3L162.1,68.3z
		 M156.1,94.7c-1.3,4.5-2.1,9.1-3.3,13.6c-0.4,1.9-1.5,4.1,0.2,5.8c5.5,0,11.4,0.3,16.1-2.3c5.7-2.8,7.6-10.3,2.9-14.4
		C167.7,94.2,161.5,94.9,156.1,94.7L156.1,94.7z"/>
	<path class="st0" d="M271.5,58.7c5.3-1.4,10.9-1.5,16.5-1.7c7.6-0.1,15.7,0.1,22.4,3.5c5.2,2.4,8.3,7.2,8.9,12
		c1.8,10.7-4.6,22.2-16.2,27.4c-7.6,3.6-16.6,3.8-25.1,3.3c-1.4,5.3-2.3,10.7-3.8,16c-0.8,2.8-2.9,5.5-6.3,6.4
		c-3.9,0.3-7.9,0-11.8,0.1C261.4,103.5,266.1,81.1,271.5,58.7z M286.8,68.9c-1.5,6.5-3,12.9-4.4,19.4c-0.5,1.3,0.6,2.5,2,3.1
		c4.2,0.7,8.5,0.1,12.2-1.7c6.9-3.4,9.8-11.3,6.6-17.3C299.9,67.6,292.3,68.4,286.8,68.9L286.8,68.9z"/>
	<path class="st0" d="M99.3,62c2.8-1.1,6.1-0.6,8.2,1.3c3.1,3.9,3.3,8.8,3.1,13.3c-0.1,3.7-0.9,7.4-2.4,10.8
		c-5.3-5.7-12.1-10.4-19.8-13.6C90.4,69.1,93.8,64.4,99.3,62z"/>
	<path class="st0" d="M327.1,73.7c2.5-4.8,5.8-9.9,11.9-12c3.1-1,6.3,0.3,8.2,2.4c3.7,7.4,2.8,15.7-0.1,23.2
		C341.6,81.8,334.8,77.1,327.1,73.7z"/>
	<path class="st1" d="M107.5,63.3c8,4.2,14.3,10.1,19.6,16.5c4.3,5.3,4.8,12.8,0.6,18.3c-5.2,7.1-12.7,12.8-20.5,17.9
		c-4.4,2.7-9.7,6-15.5,4.7c-5.4-1.1-8.8-5.2-11.2-9.2c11.6-5.7,23-13.2,27.7-24.1c1.5-3.5,2.3-7.1,2.4-10.8
		C110.8,72.1,110.6,67.2,107.5,63.3z"/>
	<path class="st1" d="M347.2,64.2c7,2.9,12,8.3,16.7,13.3c3.7,3.7,6,8.5,5.5,13.4c-0.4,4.2-3,7.8-6,11.1
		c-6.1,6.4-13.3,11.9-21.4,16.4c-3.3,1.8-7.4,3.3-11.4,2.3c-5.4-1.1-9.1-5.2-11.3-9.2c11.8-5.5,22.8-13.3,27.8-24.1
		C350,79.9,350.9,71.6,347.2,64.2z"/>
</g>
</svg>
